<?xml version="1.0" encoding="utf-8"?>
<!-- Generator: Adobe Illustrator 16.0.0, SVG Export Plug-In . SVG Version: 6.00 Build 0)  -->
<!DOCTYPE svg PUBLIC "-//W3C//DTD SVG 1.1//EN" "http://www.w3.org/Graphics/SVG/1.1/DTD/svg11.dtd">
<svg version="1.1" id="Logo" xmlns="http://www.w3.org/2000/svg" xmlns:xlink="http://www.w3.org/1999/xlink" x="0px" y="0px"
	 width="221.011px" height="80px" viewBox="0 0 221.011 80" style="enable-background:new 0 0 221.011 80;" xml:space="preserve">
<style type="text/css">
<![CDATA[
	.st0{fill:none;
		stroke:#007399;
		stroke-dasharray: 400;
		stroke-dashoffset: 0;
		stroke-miterlimit:10;
		-webkit-animation: animacion 4s forwards;
		-moz-animation: animacion 4s forwards;
		-o-animation: animacion 4s forwards;
		-animation: animacion 4s forwards;
		}

	.st1{fill:transparent;
		-webkit-animation: colorGris 1s forwards 2s;
		-moz-animation: colorGris 1s forwards 2s;
		-o-animation: colorGris 1s forwards 2s;
		-animation: colorGris 1s forwards 2s;
		}

	.st2{fill:transparent;
		-webkit-animation: centro 1s forwards 3s;
		-moz-animation: centro 1s forwards 3s;
		-o-animation: centro 1s forwards 3s;
		-animation: centro 1s forwards 3s;
		}

	.st3{fill:transparent;
		-webkit-animation: colorAzul 1s forwards 1.3s;
		-moz-animation: colorAzul 1s forwards 1.3s;
		-o-animation: colorAzul 1s forwards 1.3s;
		-animation: colorAzul 1s forwards 1.3s;
		}

	.st4{fill:transparent;
		-webkit-animation: parrafo 0.5s forwards 3.5s;
		-moz-animation: parrafo 0.5s forwards 3.5s;
		-o-animation: parrafo 0.5s forwards 3.5s;
		-animation: parrafo 0.5s forwards 3.5s;
		}

	-@webkit-keyframes animacion{
		from{
			stroke-dashoffset: 400;
		}to{
			stroke-dashoffset: 0;
		}
	}

	@keyframes animacion{
		from{
			stroke-dashoffset: 400;
		}to{
			stroke-dashoffset: 0;
		}
	}

	-@webkti-keyframes parrafo{
		from{
			fill: transparent;
		}to{
			fill: #000000;
		}
	}

	@keyframes parrafo{
		from{
			fill: transparent;
		}to{
			fill: #000000;
		}
	}

	-@webkti-keyframes colorAzul{
		from{
			fill: transparent;
		}to{
			fill: #007399;
		}
	}

	@keyframes colorAzul{
		from{
			fill: transparent;
		}to{
			fill: #007399;
		}
	}

	-@webkti-keyframes colorGris{
		from{
			fill: transparent;
		}to{
			fill: #B8C9D8;
		}
	}

	@keyframes colorGris{
		from{
			fill: transparent;
		}to{
			fill: #B8C9D8;
		}
	}

	-@webkti-keyframes centro{
		from{
			fill: transparent;
		}to{
			fill: #FFFFFF;
		}
	}

	@keyframes centro{
		from{
			fill: transparent;
		}to{
			fill: #FFFFFF;
		}
	}

]]>
</style>
<g id="Parrafo" class="st4">
	<path d="M120.414,43.666c0-1.248,0.11-2.331,0.34-3.245c0.226-0.914,0.611-1.678,1.153-2.296c0.544-0.615,1.263-1.073,2.161-1.372
		c0.896-0.299,2.014-0.447,3.354-0.447h11.328c1.321,0,2.432,0.148,3.327,0.447c0.897,0.299,1.617,0.757,2.159,1.372
		c0.544,0.618,0.935,1.382,1.17,2.296c0.234,0.914,0.354,1.997,0.354,3.245v5.381c0,1.25-0.119,2.331-0.354,3.246
		c-0.235,0.913-0.626,1.679-1.17,2.295c-0.542,0.615-1.262,1.074-2.159,1.373c-0.896,0.299-2.006,0.445-3.327,0.445h-11.328
		c-1.34,0-2.458-0.146-3.354-0.445c-0.898-0.299-1.617-0.758-2.161-1.373c-0.542-0.616-0.928-1.382-1.153-2.295
		c-0.229-0.915-0.34-1.996-0.34-3.246V43.666z M143.099,42.66c0-0.851-0.124-1.546-0.368-2.09c-0.245-0.543-0.574-0.969-0.991-1.277
		c-0.417-0.308-0.906-0.521-1.468-0.638c-0.563-0.117-1.158-0.178-1.793-0.178h-10.784c-0.635,0-1.232,0.061-1.792,0.178
		c-0.564,0.117-1.051,0.33-1.47,0.638c-0.416,0.309-0.746,0.734-0.99,1.277c-0.244,0.544-0.367,1.239-0.367,2.09v7.392
		c0,0.851,0.123,1.549,0.367,2.091s0.574,0.97,0.99,1.277c0.419,0.308,0.905,0.521,1.47,0.639c0.56,0.118,1.157,0.176,1.792,0.176
		h10.784c0.635,0,1.23-0.058,1.793-0.176c0.562-0.118,1.051-0.331,1.468-0.639s0.746-0.735,0.991-1.277
		c0.244-0.542,0.368-1.24,0.368-2.091V42.66z"/>
	<path d="M150.051,42.335h2.175v1.631h0.055c0.488-0.725,1.091-1.212,1.804-1.467c0.718-0.254,1.664-0.38,2.839-0.38h3.776
		c1.069,0,1.993,0.208,2.771,0.624c0.779,0.419,1.35,1.06,1.713,1.931c0.433-0.942,1.099-1.604,1.996-1.983
		c0.896-0.381,1.942-0.571,3.138-0.571h2.826c1.883,0,3.363,0.397,4.44,1.196c1.079,0.796,1.617,1.991,1.617,3.585v9.29h-2.336
		v-9.02c0-0.396-0.055-0.788-0.161-1.168c-0.112-0.379-0.329-0.716-0.656-1.005c-0.324-0.289-0.777-0.526-1.356-0.708
		c-0.581-0.179-1.332-0.271-2.257-0.271h-1.653c-1.051,0-1.896,0.104-2.528,0.313c-0.635,0.209-1.119,0.489-1.452,0.843
		c-0.337,0.353-0.555,0.77-0.655,1.25c-0.099,0.48-0.147,1.001-0.147,1.563v8.203h-2.336v-8.394c0-0.672-0.063-1.247-0.191-1.727
		c-0.126-0.478-0.356-0.868-0.692-1.167c-0.333-0.3-0.801-0.521-1.398-0.667c-0.598-0.143-1.359-0.217-2.281-0.217h-2.337
		c-1.503,0-2.607,0.301-3.313,0.896c-0.707,0.599-1.061,1.46-1.061,2.582v8.693h-2.337V42.335z"/>
	<path d="M197.918,54.807h-0.054c-0.164,0.308-0.344,0.565-0.543,0.774c-0.201,0.208-0.476,0.376-0.828,0.501
		c-0.355,0.128-0.818,0.212-1.389,0.258c-0.568,0.045-1.298,0.066-2.185,0.066h-5.598c-0.887,0-1.616-0.093-2.187-0.284
		c-0.571-0.19-1.022-0.46-1.359-0.815c-0.332-0.352-0.568-0.788-0.703-1.302c-0.139-0.518-0.205-1.101-0.205-1.755v-0.923
		c0-0.777,0.136-1.402,0.406-1.874c0.271-0.47,0.675-0.827,1.211-1.072c0.532-0.244,1.194-0.403,1.982-0.478
		c0.788-0.07,1.688-0.106,2.702-0.106h3.75c0.759,0,1.407,0.024,1.941,0.066c0.534,0.047,0.992,0.134,1.372,0.259
		c0.38,0.128,0.696,0.299,0.95,0.515c0.254,0.219,0.479,0.491,0.681,0.816h0.054v-2.606c0-0.616-0.099-1.114-0.299-1.494
		c-0.198-0.383-0.512-0.667-0.938-0.858c-0.426-0.188-0.963-0.316-1.615-0.379s-1.42-0.096-2.308-0.096h-3.426
		c-0.742,0-1.339,0.042-1.792,0.122c-0.452,0.082-0.806,0.204-1.059,0.367c-0.255,0.165-0.427,0.358-0.517,0.586
		c-0.093,0.225-0.136,0.483-0.136,0.772v0.49h-2.337V45.68c0-0.636,0.104-1.181,0.313-1.632c0.206-0.453,0.543-0.819,1.004-1.101
		c0.463-0.281,1.059-0.49,1.793-0.624c0.733-0.137,1.625-0.204,2.675-0.204h3.696c1.085,0,2.077,0.054,2.974,0.162
		c0.898,0.108,1.661,0.335,2.296,0.68c0.635,0.342,1.128,0.83,1.48,1.453c0.354,0.624,0.531,1.453,0.531,2.486v9.29h-2.337V54.807z
		 M197.918,51.844c0-0.471-0.108-0.847-0.326-1.127c-0.217-0.28-0.544-0.497-0.979-0.653c-0.434-0.15-0.982-0.252-1.643-0.296
		c-0.662-0.046-1.438-0.07-2.322-0.07h-3.587c-0.76,0-1.385,0.034-1.876,0.096c-0.488,0.063-0.88,0.178-1.179,0.341
		c-0.301,0.163-0.508,0.386-0.627,0.664c-0.117,0.281-0.176,0.641-0.176,1.075v0.432c0,0.38,0.044,0.712,0.136,0.992
		c0.091,0.281,0.27,0.514,0.545,0.693c0.269,0.183,0.65,0.313,1.138,0.395c0.491,0.08,1.134,0.121,1.93,0.121h3.098
		c1.05,0,1.95-0.022,2.704-0.066c0.752-0.046,1.357-0.146,1.818-0.302c0.463-0.151,0.803-0.36,1.02-0.623
		c0.218-0.263,0.326-0.61,0.326-1.046V51.844z"/>
	<path d="M204.572,42.335h2.174v2.011h0.055c0.219-0.452,0.484-0.822,0.803-1.113c0.315-0.29,0.664-0.517,1.046-0.679
		c0.38-0.164,0.772-0.276,1.181-0.341c0.408-0.062,0.81-0.094,1.209-0.094h2.199c1.088,0,2.002,0.091,2.744,0.271
		c0.744,0.183,1.34,0.468,1.793,0.854c0.453,0.394,0.78,0.891,0.979,1.498c0.2,0.605,0.299,1.334,0.299,2.188v1.654h-2.172v-0.596
		c0-0.852-0.061-1.54-0.179-2.065s-0.347-0.927-0.69-1.209c-0.346-0.281-0.84-0.467-1.482-0.557
		c-0.642-0.091-1.479-0.137-2.512-0.137h-1.442c-0.613,0-1.153,0.092-1.614,0.271c-0.463,0.182-0.841,0.427-1.142,0.733
		c-0.299,0.311-0.525,0.666-0.678,1.076c-0.155,0.408-0.233,0.837-0.233,1.289v8.802h-2.336V42.335z"/>
</g>
<path id="CuadroGris" class="st1" d="M4.235,24.898c0,0,0.742,34.723,0.86,42.186c0.116,7.463,3.771,8.704,8.678,8.638
	c4.906-0.066,84.938-4.391,90.427-4.78c5.488-0.389,5.899-3.887,5.628-5.333s-10.671-31.79-11.626-34.605
	c-0.957-2.814-4.574-7.269-10.254-7.912c-5.682-0.645-71.46-5.839-76.071-6.471C7.269,15.99,4.123,19.578,4.235,24.898z"/>
<path id="CuadroAzul" class="st3" d="M14.569,10.521c0,0-5.675,34.264-6.936,41.621c-1.262,7.356,2.102,9.249,6.936,10.089
	c4.835,0.842,84.292,11.353,89.757,11.983c5.465,0.631,6.516-2.733,6.516-4.205c0-1.471-4.625-33.213-5.044-36.155
	c-0.42-2.941-3.154-7.988-8.619-9.67C91.713,22.504,28.022,5.266,23.608,3.796C19.193,2.324,15.439,5.271,14.569,10.521z"/>
<path id="CuadroBorde" class="st0" d="M14.569,10.521c0,0-5.675,34.264-6.936,41.621c-1.262,7.356,2.102,9.249,6.936,10.089
	c4.835,0.842,84.292,11.353,89.757,11.983c5.465,0.631,6.516-2.733,6.516-4.205c0-1.471-4.625-33.213-5.044-36.155
	c-0.42-2.941-3.154-7.988-8.619-9.67C91.713,22.504,28.022,5.266,23.608,3.796C19.193,2.324,15.439,5.271,14.569,10.521z"/>
<path id="TextoCentro" class="st2" d="M47.786,24.971c0,0,8.434,0,11.986,0c4.57,0,13.14,3.734,13.14,13.107
	s-7.796,13.106-13.14,13.106c-3.307,0-4.176-0.679-4.176-0.679s0,10.267,0,10.594c0,0.325-0.204,0.882-0.679,0.882s-6.52,0-7.131,0
	c-0.61,0-1.154-0.326-1.154-1.356c0-1.033,0-5.35,0-7.132c0-5.378,1.154-12.089,10.39-13.176c2.242,2.378,2.309,2.378,2.751,2.854
	c0.441,0.475,0.984,0.272,1.461-0.476c0.475-0.746,4.346-7.538,4.549-7.877c0.203-0.339,0.136-0.749-0.746-0.612
	c-0.885,0.138-10.799,1.29-11.41,1.428c-0.611,0.136-0.611,0.407-0.135,1.019c0.475,0.609,1.63,1.426,1.63,1.426l6.383-1.766
	c0,0-1.401,0.854-3.303,1.766c-2.113,1.013-4.843,2.102-6.951,2.173c-3.193,0.107-4.618-2.364-4.618-6.993c0-4.633,0-7.254,0-7.607
	S47.052,24.971,47.786,24.971z"/>
<path id="TextoMayorQue" class="st2" d="M35.638,60.219c-0.628,0-1.256-0.241-1.732-0.722L18.44,43.93
	c-0.951-0.954-0.945-2.501,0.011-3.449l15.566-15.466c0.957-0.95,2.501-0.945,3.452,0.012c0.952,0.954,0.946,2.502-0.01,3.452
	L23.626,42.222l13.743,13.834c0.951,0.959,0.946,2.503-0.011,3.452C36.882,59.982,36.259,60.219,35.638,60.219z"/>
<path id="TextoMenorQue" class="st2" d="M79.933,60.219c-0.628,0-1.254-0.241-1.731-0.722c-0.952-0.955-0.946-2.5,0.011-3.453
	l13.833-13.742L78.301,28.468c-0.951-0.958-0.946-2.504,0.011-3.453c0.956-0.95,2.501-0.945,3.453,0.012l15.464,15.566
	c0.952,0.954,0.946,2.502-0.012,3.453L81.654,59.511C81.177,59.982,80.556,60.219,79.933,60.219z"/>
</svg>
